%TF.GenerationSoftware,KiCad,Pcbnew,(6.0.8)*%
%TF.CreationDate,2022-10-01T01:52:23+02:00*%
%TF.ProjectId,ea_logobulb,65615f6c-6f67-46f6-9275-6c622e6b6963,rev?*%
%TF.SameCoordinates,Original*%
%TF.FileFunction,Drillmap*%
%TF.FilePolarity,Positive*%
%FSLAX45Y45*%
G04 Gerber Fmt 4.5, Leading zero omitted, Abs format (unit mm)*
G04 Created by KiCad (PCBNEW (6.0.8)) date 2022-10-01 01:52:23*
%MOMM*%
%LPD*%
G01*
G04 APERTURE LIST*
%ADD10C,0.100000*%
%ADD11C,0.200000*%
%ADD12C,0.090000*%
G04 APERTURE END LIST*
D10*
X13971382Y-5269452D02*
X13978167Y-5269499D01*
X14052056Y-5270818D01*
X14125865Y-5274357D01*
X14199532Y-5280101D01*
X14272995Y-5288035D01*
X14346190Y-5298145D01*
X14419054Y-5310414D01*
X14491526Y-5324828D01*
X14563541Y-5341373D01*
X14635037Y-5360031D01*
X14705951Y-5380790D01*
X14776221Y-5403633D01*
X14845784Y-5428546D01*
X14914576Y-5455514D01*
X14982535Y-5484520D01*
X15049598Y-5515551D01*
X15115702Y-5548592D01*
X15181489Y-5583851D01*
X15246167Y-5621096D01*
X15309683Y-5660284D01*
X15371986Y-5701371D01*
X15433025Y-5744314D01*
X15492749Y-5789069D01*
X15551106Y-5835593D01*
X15608046Y-5883841D01*
X15663517Y-5933770D01*
X15717467Y-5985337D01*
X15769846Y-6038498D01*
X15820603Y-6093209D01*
X15869685Y-6149427D01*
X15917042Y-6207109D01*
X15962622Y-6266209D01*
X16006375Y-6326686D01*
X16047569Y-6387174D01*
X16086921Y-6448869D01*
X16124408Y-6511711D01*
X16160005Y-6575641D01*
X16193689Y-6640600D01*
X16225436Y-6706528D01*
X16255222Y-6773365D01*
X16283024Y-6841052D01*
X16308817Y-6909529D01*
X16332579Y-6978737D01*
X16354284Y-7048616D01*
X16373909Y-7119107D01*
X16391431Y-7190151D01*
X16406826Y-7261687D01*
X16420070Y-7333656D01*
X16431138Y-7405998D01*
X16443053Y-7508257D01*
X16450740Y-7610909D01*
X16454241Y-7713791D01*
X16453596Y-7816736D01*
X16448845Y-7919581D01*
X16440030Y-8022159D01*
X16427189Y-8124306D01*
X16410365Y-8225856D01*
X16395731Y-8298631D01*
X16378991Y-8370944D01*
X16360171Y-8442741D01*
X16339294Y-8513964D01*
X16316385Y-8584561D01*
X16291469Y-8654474D01*
X16264571Y-8723650D01*
X16235716Y-8792034D01*
X16204927Y-8859569D01*
X16172230Y-8926201D01*
X16137650Y-8991875D01*
X16101211Y-9056536D01*
X16062938Y-9120128D01*
X16022856Y-9182597D01*
X15980988Y-9243888D01*
X15937361Y-9303944D01*
X15927840Y-9316803D01*
X15918120Y-9329511D01*
X15898332Y-9354658D01*
X15878488Y-9379757D01*
X15868699Y-9392404D01*
X15859081Y-9405179D01*
X15851750Y-9413020D01*
X15844673Y-9421064D01*
X15837838Y-9429298D01*
X15831231Y-9437709D01*
X15824840Y-9446283D01*
X15818651Y-9455009D01*
X15812653Y-9463872D01*
X15806832Y-9472860D01*
X15795671Y-9491158D01*
X15785066Y-9509798D01*
X15774914Y-9528676D01*
X15765114Y-9547686D01*
X15750457Y-9578926D01*
X15736884Y-9610598D01*
X15724369Y-9642672D01*
X15712890Y-9675114D01*
X15702422Y-9707892D01*
X15692940Y-9740976D01*
X15684421Y-9774333D01*
X15676839Y-9807930D01*
X15670172Y-9841736D01*
X15664394Y-9875719D01*
X15659482Y-9909846D01*
X15655411Y-9944087D01*
X15652157Y-9978408D01*
X15649696Y-10012778D01*
X15648004Y-10047164D01*
X15647056Y-10081536D01*
X15646998Y-10109589D01*
X15646333Y-10137639D01*
X15645021Y-10165665D01*
X15643017Y-10193645D01*
X15640283Y-10221558D01*
X15636774Y-10249383D01*
X15632450Y-10277097D01*
X15627269Y-10304680D01*
X15613092Y-10492150D01*
X15597722Y-10679535D01*
X15565812Y-11054215D01*
X15564310Y-11070583D01*
X15563065Y-11086971D01*
X15560960Y-11119774D01*
X15558735Y-11152563D01*
X15557339Y-11168934D01*
X15555627Y-11185279D01*
X15555308Y-11197277D01*
X15555180Y-11209286D01*
X15555274Y-11233327D01*
X15555467Y-11257380D01*
X15555462Y-11269403D01*
X15555315Y-11281421D01*
X15552717Y-11416770D01*
X15550372Y-11484425D01*
X15547240Y-11552047D01*
X15543253Y-11619620D01*
X15538344Y-11687128D01*
X15532446Y-11754557D01*
X15525491Y-11821891D01*
X15520139Y-11864769D01*
X15514174Y-11907662D01*
X15507304Y-11950445D01*
X15499236Y-11992993D01*
X15489677Y-12035179D01*
X15484246Y-12056098D01*
X15478333Y-12076879D01*
X15471901Y-12097508D01*
X15464912Y-12117967D01*
X15457331Y-12138243D01*
X15449121Y-12158318D01*
X15441946Y-12174099D01*
X15434388Y-12189716D01*
X15426420Y-12205134D01*
X15418019Y-12220317D01*
X15409157Y-12235228D01*
X15399808Y-12249832D01*
X15394943Y-12257008D01*
X15389948Y-12264093D01*
X15384817Y-12271083D01*
X15379549Y-12277974D01*
X15376860Y-12281766D01*
X15374104Y-12285501D01*
X15371288Y-12289184D01*
X15368414Y-12292818D01*
X15362510Y-12299953D01*
X15356427Y-12306934D01*
X15350197Y-12313790D01*
X15343854Y-12320549D01*
X15330957Y-12333888D01*
X15327368Y-12337968D01*
X15323651Y-12341907D01*
X15319819Y-12345719D01*
X15315884Y-12349418D01*
X15311858Y-12353016D01*
X15307755Y-12356528D01*
X15299361Y-12363346D01*
X15290802Y-12369980D01*
X15282175Y-12376540D01*
X15273578Y-12383134D01*
X15265110Y-12389869D01*
X15251971Y-12398632D01*
X15238640Y-12407121D01*
X15225125Y-12415326D01*
X15211432Y-12423237D01*
X15197566Y-12430843D01*
X15183533Y-12438135D01*
X15169339Y-12445102D01*
X15154992Y-12451734D01*
X15129956Y-12462387D01*
X15104509Y-12471990D01*
X15078693Y-12480540D01*
X15052553Y-12488033D01*
X15026131Y-12494464D01*
X14999473Y-12499830D01*
X14972620Y-12504127D01*
X14945616Y-12507349D01*
X14918506Y-12509493D01*
X14891332Y-12510555D01*
X14864138Y-12510531D01*
X14836967Y-12509417D01*
X14809864Y-12507208D01*
X14782872Y-12503901D01*
X14756033Y-12499490D01*
X14729392Y-12493973D01*
X14702824Y-12487444D01*
X14676557Y-12479817D01*
X14650630Y-12471117D01*
X14625082Y-12461365D01*
X14599950Y-12450584D01*
X14575273Y-12438798D01*
X14551090Y-12426028D01*
X14527439Y-12412299D01*
X14504358Y-12397632D01*
X14481885Y-12382050D01*
X14460060Y-12365576D01*
X14438919Y-12348233D01*
X14418503Y-12330044D01*
X14398848Y-12311031D01*
X14379994Y-12291217D01*
X14361978Y-12270625D01*
X14355753Y-12263381D01*
X14349721Y-12255994D01*
X14343861Y-12248478D01*
X14338152Y-12240849D01*
X14332572Y-12233124D01*
X14327098Y-12225318D01*
X14316384Y-12209527D01*
X14311779Y-12203375D01*
X14306794Y-12197663D01*
X14301459Y-12192367D01*
X14295806Y-12187459D01*
X14289864Y-12182915D01*
X14283664Y-12178708D01*
X14277237Y-12174813D01*
X14270612Y-12171204D01*
X14263821Y-12167854D01*
X14256894Y-12164738D01*
X14249861Y-12161831D01*
X14242753Y-12159105D01*
X14228432Y-12154098D01*
X14214177Y-12149508D01*
X14196723Y-12144687D01*
X14179183Y-12140257D01*
X14143877Y-12132481D01*
X14108312Y-12125992D01*
X14072544Y-12120601D01*
X14036628Y-12116120D01*
X14000619Y-12112360D01*
X13928543Y-12106250D01*
X13849180Y-12101618D01*
X13769769Y-12098237D01*
X13610847Y-12094410D01*
X13451857Y-12093131D01*
X13292881Y-12092764D01*
X13266897Y-12089550D01*
X13241762Y-12086032D01*
X13217449Y-12082217D01*
X13193930Y-12078113D01*
X13171177Y-12073730D01*
X13149161Y-12069075D01*
X13127856Y-12064155D01*
X13107233Y-12058980D01*
X13087265Y-12053558D01*
X13067923Y-12047896D01*
X13049180Y-12042003D01*
X13031007Y-12035887D01*
X12996263Y-12023019D01*
X12963468Y-12009356D01*
X12846190Y-11919777D01*
X12836433Y-11910768D01*
X12826840Y-11901585D01*
X12817417Y-11892226D01*
X12808171Y-11882693D01*
X12799111Y-11872986D01*
X12790241Y-11863103D01*
X12781571Y-11853045D01*
X12773106Y-11842813D01*
X12756179Y-11821148D01*
X12740181Y-11798798D01*
X12725129Y-11775807D01*
X12711039Y-11752216D01*
X12697926Y-11728069D01*
X12685807Y-11703407D01*
X12674698Y-11678274D01*
X12664615Y-11652711D01*
X12655574Y-11626761D01*
X12647591Y-11600468D01*
X12640683Y-11573872D01*
X12634864Y-11547017D01*
X12630152Y-11519946D01*
X12626562Y-11492701D01*
X12624110Y-11465324D01*
X12622813Y-11437857D01*
X12622780Y-11433720D01*
X12622654Y-11433258D01*
X12622362Y-11431588D01*
X12622227Y-11429857D01*
X12622228Y-11428163D01*
X12622343Y-11426605D01*
X12622550Y-11425285D01*
X12622708Y-11424721D01*
X12622780Y-11433720D01*
X12622867Y-11434037D01*
X12623127Y-11434764D01*
X12623438Y-11435425D01*
X12623802Y-11436009D01*
X12624223Y-11436502D01*
X12624702Y-11436891D01*
X12625243Y-11437166D01*
X12625848Y-11437312D01*
X12626520Y-11437318D01*
X12627263Y-11437172D01*
X12628077Y-11436860D01*
X12628968Y-11436370D01*
X12624186Y-11425727D01*
X12624023Y-11424949D01*
X12623853Y-11424367D01*
X12623677Y-11423969D01*
X12623500Y-11423742D01*
X12623323Y-11423675D01*
X12623150Y-11423753D01*
X12622984Y-11423966D01*
X12622827Y-11424301D01*
X12622708Y-11424721D01*
X12620143Y-11103512D01*
X12619885Y-10936331D01*
X12620788Y-10769155D01*
X12618414Y-10761368D01*
X12615864Y-10753614D01*
X12613178Y-10745887D01*
X12610398Y-10738180D01*
X12604717Y-10722795D01*
X12599149Y-10707402D01*
X12524000Y-10507438D01*
X12447788Y-10307862D01*
X12372835Y-10107826D01*
X12336557Y-10007370D01*
X12301465Y-9906481D01*
X12285135Y-9857430D01*
X12269649Y-9808112D01*
X12254776Y-9758603D01*
X12240284Y-9708982D01*
X12234471Y-9684584D01*
X12228072Y-9660332D01*
X12221088Y-9636241D01*
X12213524Y-9612327D01*
X12205384Y-9588604D01*
X12196672Y-9565085D01*
X12187391Y-9541786D01*
X12177546Y-9518721D01*
X12167140Y-9495905D01*
X12156177Y-9473353D01*
X12144662Y-9451078D01*
X12132597Y-9429095D01*
X12119986Y-9407419D01*
X12106835Y-9386064D01*
X12093145Y-9365046D01*
X12078922Y-9344378D01*
X12059155Y-9320096D01*
X12039249Y-9295904D01*
X12019514Y-9271569D01*
X12009806Y-9259275D01*
X12000256Y-9246857D01*
X11960186Y-9193593D01*
X11921590Y-9139256D01*
X11884489Y-9083889D01*
X11848905Y-9027536D01*
X11814859Y-8970240D01*
X11782373Y-8912047D01*
X11751467Y-8852998D01*
X11722163Y-8793138D01*
X11694482Y-8732511D01*
X11668446Y-8671161D01*
X11644075Y-8609130D01*
X11621391Y-8546463D01*
X11600416Y-8483204D01*
X11581170Y-8419396D01*
X11563674Y-8355082D01*
X11547951Y-8290308D01*
X11533659Y-8223936D01*
X11521228Y-8157195D01*
X11510659Y-8090136D01*
X11501953Y-8022812D01*
X11495110Y-7955272D01*
X11490129Y-7887570D01*
X11487012Y-7819755D01*
X11485759Y-7751881D01*
X11486370Y-7683997D01*
X11488846Y-7616157D01*
X11493186Y-7548410D01*
X11499392Y-7480810D01*
X11507464Y-7413406D01*
X11517401Y-7346251D01*
X11529205Y-7279397D01*
X11542876Y-7212894D01*
X11559520Y-7142011D01*
X11578279Y-7071664D01*
X11599125Y-7001911D01*
X11622030Y-6932808D01*
X11646967Y-6864411D01*
X11673907Y-6796778D01*
X11702824Y-6729965D01*
X11733689Y-6664030D01*
X11766475Y-6599027D01*
X11801154Y-6535016D01*
X11837699Y-6472052D01*
X11876082Y-6410191D01*
X11916274Y-6349492D01*
X11958250Y-6290010D01*
X12001980Y-6231803D01*
X12047437Y-6174927D01*
X12093371Y-6120631D01*
X12140866Y-6067706D01*
X12189875Y-6016185D01*
X12240351Y-5966103D01*
X12292246Y-5917493D01*
X12345514Y-5870391D01*
X12400108Y-5824830D01*
X12455981Y-5780845D01*
X12513085Y-5738470D01*
X12571374Y-5697740D01*
X12630800Y-5658687D01*
X12691316Y-5621348D01*
X12752876Y-5585755D01*
X12815432Y-5551944D01*
X12878937Y-5519948D01*
X12943344Y-5489802D01*
X13003650Y-5463503D01*
X13064634Y-5438832D01*
X13126253Y-5415799D01*
X13188461Y-5394413D01*
X13251213Y-5374681D01*
X13314465Y-5356615D01*
X13378171Y-5340222D01*
X13442288Y-5325511D01*
X13506769Y-5312493D01*
X13571571Y-5301175D01*
X13636648Y-5291566D01*
X13701956Y-5283677D01*
X13767450Y-5277515D01*
X13833084Y-5273090D01*
X13898815Y-5270410D01*
X13964597Y-5269486D01*
X13964597Y-5269486D01*
X13967989Y-5269445D01*
X13971382Y-5269452D01*
D11*
D12*
X13163000Y-7778200D02*
X13253000Y-7868200D01*
X13253000Y-7778200D02*
X13163000Y-7868200D01*
X13361120Y-8845000D02*
X13451120Y-8935000D01*
X13451120Y-8845000D02*
X13361120Y-8935000D01*
X13925000Y-7879800D02*
X14015000Y-7969800D01*
X14015000Y-7879800D02*
X13925000Y-7969800D01*
X14529520Y-8895800D02*
X14619520Y-8985800D01*
X14619520Y-8895800D02*
X14529520Y-8985800D01*
X14687000Y-7778200D02*
X14777000Y-7868200D01*
X14777000Y-7778200D02*
X14687000Y-7868200D01*
X14839400Y-11816800D02*
X14929400Y-11906800D01*
X14929400Y-11816800D02*
X14839400Y-11906800D01*
D11*
X11738378Y-12826032D02*
X11738378Y-12626032D01*
X11785997Y-12626032D01*
X11814569Y-12635555D01*
X11833616Y-12654603D01*
X11843140Y-12673651D01*
X11852664Y-12711746D01*
X11852664Y-12740317D01*
X11843140Y-12778413D01*
X11833616Y-12797460D01*
X11814569Y-12816508D01*
X11785997Y-12826032D01*
X11738378Y-12826032D01*
X11938378Y-12826032D02*
X11938378Y-12692698D01*
X11938378Y-12730793D02*
X11947902Y-12711746D01*
X11957426Y-12702222D01*
X11976473Y-12692698D01*
X11995521Y-12692698D01*
X12062188Y-12826032D02*
X12062188Y-12692698D01*
X12062188Y-12626032D02*
X12052664Y-12635555D01*
X12062188Y-12645079D01*
X12071711Y-12635555D01*
X12062188Y-12626032D01*
X12062188Y-12645079D01*
X12185997Y-12826032D02*
X12166949Y-12816508D01*
X12157426Y-12797460D01*
X12157426Y-12626032D01*
X12290759Y-12826032D02*
X12271711Y-12816508D01*
X12262188Y-12797460D01*
X12262188Y-12626032D01*
X12519330Y-12826032D02*
X12519330Y-12626032D01*
X12585997Y-12768889D01*
X12652664Y-12626032D01*
X12652664Y-12826032D01*
X12833616Y-12826032D02*
X12833616Y-12721270D01*
X12824092Y-12702222D01*
X12805045Y-12692698D01*
X12766949Y-12692698D01*
X12747902Y-12702222D01*
X12833616Y-12816508D02*
X12814569Y-12826032D01*
X12766949Y-12826032D01*
X12747902Y-12816508D01*
X12738378Y-12797460D01*
X12738378Y-12778413D01*
X12747902Y-12759365D01*
X12766949Y-12749841D01*
X12814569Y-12749841D01*
X12833616Y-12740317D01*
X12928854Y-12692698D02*
X12928854Y-12892698D01*
X12928854Y-12702222D02*
X12947902Y-12692698D01*
X12985997Y-12692698D01*
X13005045Y-12702222D01*
X13014569Y-12711746D01*
X13024092Y-12730793D01*
X13024092Y-12787936D01*
X13014569Y-12806984D01*
X13005045Y-12816508D01*
X12985997Y-12826032D01*
X12947902Y-12826032D01*
X12928854Y-12816508D01*
X13109807Y-12806984D02*
X13119330Y-12816508D01*
X13109807Y-12826032D01*
X13100283Y-12816508D01*
X13109807Y-12806984D01*
X13109807Y-12826032D01*
X13109807Y-12702222D02*
X13119330Y-12711746D01*
X13109807Y-12721270D01*
X13100283Y-12711746D01*
X13109807Y-12702222D01*
X13109807Y-12721270D01*
D12*
X11390759Y-13110555D02*
X11480759Y-13200555D01*
X11480759Y-13110555D02*
X11390759Y-13200555D01*
D11*
X11776473Y-13046032D02*
X11795521Y-13046032D01*
X11814569Y-13055555D01*
X11824092Y-13065079D01*
X11833616Y-13084127D01*
X11843140Y-13122222D01*
X11843140Y-13169841D01*
X11833616Y-13207936D01*
X11824092Y-13226984D01*
X11814569Y-13236508D01*
X11795521Y-13246032D01*
X11776473Y-13246032D01*
X11757426Y-13236508D01*
X11747902Y-13226984D01*
X11738378Y-13207936D01*
X11728854Y-13169841D01*
X11728854Y-13122222D01*
X11738378Y-13084127D01*
X11747902Y-13065079D01*
X11757426Y-13055555D01*
X11776473Y-13046032D01*
X11928854Y-13226984D02*
X11938378Y-13236508D01*
X11928854Y-13246032D01*
X11919330Y-13236508D01*
X11928854Y-13226984D01*
X11928854Y-13246032D01*
X12033616Y-13246032D02*
X12071711Y-13246032D01*
X12090759Y-13236508D01*
X12100283Y-13226984D01*
X12119330Y-13198413D01*
X12128854Y-13160317D01*
X12128854Y-13084127D01*
X12119330Y-13065079D01*
X12109807Y-13055555D01*
X12090759Y-13046032D01*
X12052664Y-13046032D01*
X12033616Y-13055555D01*
X12024092Y-13065079D01*
X12014569Y-13084127D01*
X12014569Y-13131746D01*
X12024092Y-13150793D01*
X12033616Y-13160317D01*
X12052664Y-13169841D01*
X12090759Y-13169841D01*
X12109807Y-13160317D01*
X12119330Y-13150793D01*
X12128854Y-13131746D01*
X12252664Y-13046032D02*
X12271711Y-13046032D01*
X12290759Y-13055555D01*
X12300283Y-13065079D01*
X12309807Y-13084127D01*
X12319330Y-13122222D01*
X12319330Y-13169841D01*
X12309807Y-13207936D01*
X12300283Y-13226984D01*
X12290759Y-13236508D01*
X12271711Y-13246032D01*
X12252664Y-13246032D01*
X12233616Y-13236508D01*
X12224092Y-13226984D01*
X12214569Y-13207936D01*
X12205045Y-13169841D01*
X12205045Y-13122222D01*
X12214569Y-13084127D01*
X12224092Y-13065079D01*
X12233616Y-13055555D01*
X12252664Y-13046032D01*
X12443140Y-13046032D02*
X12462188Y-13046032D01*
X12481235Y-13055555D01*
X12490759Y-13065079D01*
X12500283Y-13084127D01*
X12509807Y-13122222D01*
X12509807Y-13169841D01*
X12500283Y-13207936D01*
X12490759Y-13226984D01*
X12481235Y-13236508D01*
X12462188Y-13246032D01*
X12443140Y-13246032D01*
X12424092Y-13236508D01*
X12414569Y-13226984D01*
X12405045Y-13207936D01*
X12395521Y-13169841D01*
X12395521Y-13122222D01*
X12405045Y-13084127D01*
X12414569Y-13065079D01*
X12424092Y-13055555D01*
X12443140Y-13046032D01*
X12595521Y-13246032D02*
X12595521Y-13112698D01*
X12595521Y-13131746D02*
X12605045Y-13122222D01*
X12624092Y-13112698D01*
X12652664Y-13112698D01*
X12671711Y-13122222D01*
X12681235Y-13141270D01*
X12681235Y-13246032D01*
X12681235Y-13141270D02*
X12690759Y-13122222D01*
X12709807Y-13112698D01*
X12738378Y-13112698D01*
X12757426Y-13122222D01*
X12766949Y-13141270D01*
X12766949Y-13246032D01*
X12862188Y-13246032D02*
X12862188Y-13112698D01*
X12862188Y-13131746D02*
X12871711Y-13122222D01*
X12890759Y-13112698D01*
X12919330Y-13112698D01*
X12938378Y-13122222D01*
X12947902Y-13141270D01*
X12947902Y-13246032D01*
X12947902Y-13141270D02*
X12957426Y-13122222D01*
X12976473Y-13112698D01*
X13005045Y-13112698D01*
X13024092Y-13122222D01*
X13033616Y-13141270D01*
X13033616Y-13246032D01*
X13424092Y-13036508D02*
X13252664Y-13293651D01*
X13681235Y-13046032D02*
X13700283Y-13046032D01*
X13719330Y-13055555D01*
X13728854Y-13065079D01*
X13738378Y-13084127D01*
X13747902Y-13122222D01*
X13747902Y-13169841D01*
X13738378Y-13207936D01*
X13728854Y-13226984D01*
X13719330Y-13236508D01*
X13700283Y-13246032D01*
X13681235Y-13246032D01*
X13662188Y-13236508D01*
X13652664Y-13226984D01*
X13643140Y-13207936D01*
X13633616Y-13169841D01*
X13633616Y-13122222D01*
X13643140Y-13084127D01*
X13652664Y-13065079D01*
X13662188Y-13055555D01*
X13681235Y-13046032D01*
X13833616Y-13226984D02*
X13843140Y-13236508D01*
X13833616Y-13246032D01*
X13824092Y-13236508D01*
X13833616Y-13226984D01*
X13833616Y-13246032D01*
X13966949Y-13046032D02*
X13985997Y-13046032D01*
X14005045Y-13055555D01*
X14014569Y-13065079D01*
X14024092Y-13084127D01*
X14033616Y-13122222D01*
X14033616Y-13169841D01*
X14024092Y-13207936D01*
X14014569Y-13226984D01*
X14005045Y-13236508D01*
X13985997Y-13246032D01*
X13966949Y-13246032D01*
X13947902Y-13236508D01*
X13938378Y-13226984D01*
X13928854Y-13207936D01*
X13919330Y-13169841D01*
X13919330Y-13122222D01*
X13928854Y-13084127D01*
X13938378Y-13065079D01*
X13947902Y-13055555D01*
X13966949Y-13046032D01*
X14100283Y-13046032D02*
X14224092Y-13046032D01*
X14157426Y-13122222D01*
X14185997Y-13122222D01*
X14205045Y-13131746D01*
X14214569Y-13141270D01*
X14224092Y-13160317D01*
X14224092Y-13207936D01*
X14214569Y-13226984D01*
X14205045Y-13236508D01*
X14185997Y-13246032D01*
X14128854Y-13246032D01*
X14109807Y-13236508D01*
X14100283Y-13226984D01*
X14405045Y-13046032D02*
X14309807Y-13046032D01*
X14300283Y-13141270D01*
X14309807Y-13131746D01*
X14328854Y-13122222D01*
X14376473Y-13122222D01*
X14395521Y-13131746D01*
X14405045Y-13141270D01*
X14414569Y-13160317D01*
X14414569Y-13207936D01*
X14405045Y-13226984D01*
X14395521Y-13236508D01*
X14376473Y-13246032D01*
X14328854Y-13246032D01*
X14309807Y-13236508D01*
X14300283Y-13226984D01*
X14585997Y-13112698D02*
X14585997Y-13246032D01*
X14538378Y-13036508D02*
X14490759Y-13179365D01*
X14614569Y-13179365D01*
X14681235Y-13046032D02*
X14681235Y-13084127D01*
X14757426Y-13046032D02*
X14757426Y-13084127D01*
X15052664Y-13322222D02*
X15043140Y-13312698D01*
X15024092Y-13284127D01*
X15014569Y-13265079D01*
X15005045Y-13236508D01*
X14995521Y-13188889D01*
X14995521Y-13150793D01*
X15005045Y-13103174D01*
X15014569Y-13074603D01*
X15024092Y-13055555D01*
X15043140Y-13026984D01*
X15052664Y-13017460D01*
X15214569Y-13046032D02*
X15176473Y-13046032D01*
X15157426Y-13055555D01*
X15147902Y-13065079D01*
X15128854Y-13093651D01*
X15119330Y-13131746D01*
X15119330Y-13207936D01*
X15128854Y-13226984D01*
X15138378Y-13236508D01*
X15157426Y-13246032D01*
X15195521Y-13246032D01*
X15214569Y-13236508D01*
X15224092Y-13226984D01*
X15233616Y-13207936D01*
X15233616Y-13160317D01*
X15224092Y-13141270D01*
X15214569Y-13131746D01*
X15195521Y-13122222D01*
X15157426Y-13122222D01*
X15138378Y-13131746D01*
X15128854Y-13141270D01*
X15119330Y-13160317D01*
X15471711Y-13246032D02*
X15471711Y-13046032D01*
X15557426Y-13246032D02*
X15557426Y-13141270D01*
X15547902Y-13122222D01*
X15528854Y-13112698D01*
X15500283Y-13112698D01*
X15481235Y-13122222D01*
X15471711Y-13131746D01*
X15681235Y-13246032D02*
X15662188Y-13236508D01*
X15652664Y-13226984D01*
X15643140Y-13207936D01*
X15643140Y-13150793D01*
X15652664Y-13131746D01*
X15662188Y-13122222D01*
X15681235Y-13112698D01*
X15709807Y-13112698D01*
X15728854Y-13122222D01*
X15738378Y-13131746D01*
X15747902Y-13150793D01*
X15747902Y-13207936D01*
X15738378Y-13226984D01*
X15728854Y-13236508D01*
X15709807Y-13246032D01*
X15681235Y-13246032D01*
X15862188Y-13246032D02*
X15843140Y-13236508D01*
X15833616Y-13217460D01*
X15833616Y-13046032D01*
X16014569Y-13236508D02*
X15995521Y-13246032D01*
X15957426Y-13246032D01*
X15938378Y-13236508D01*
X15928854Y-13217460D01*
X15928854Y-13141270D01*
X15938378Y-13122222D01*
X15957426Y-13112698D01*
X15995521Y-13112698D01*
X16014569Y-13122222D01*
X16024092Y-13141270D01*
X16024092Y-13160317D01*
X15928854Y-13179365D01*
X16100283Y-13236508D02*
X16119330Y-13246032D01*
X16157426Y-13246032D01*
X16176473Y-13236508D01*
X16185997Y-13217460D01*
X16185997Y-13207936D01*
X16176473Y-13188889D01*
X16157426Y-13179365D01*
X16128854Y-13179365D01*
X16109807Y-13169841D01*
X16100283Y-13150793D01*
X16100283Y-13141270D01*
X16109807Y-13122222D01*
X16128854Y-13112698D01*
X16157426Y-13112698D01*
X16176473Y-13122222D01*
X16252664Y-13322222D02*
X16262188Y-13312698D01*
X16281235Y-13284127D01*
X16290759Y-13265079D01*
X16300283Y-13236508D01*
X16309807Y-13188889D01*
X16309807Y-13150793D01*
X16300283Y-13103174D01*
X16290759Y-13074603D01*
X16281235Y-13055555D01*
X16262188Y-13026984D01*
X16252664Y-13017460D01*
M02*
