%TF.GenerationSoftware,KiCad,Pcbnew,(6.0.8)*%
%TF.CreationDate,2022-10-01T01:52:07+02:00*%
%TF.ProjectId,ea_logobulb,65615f6c-6f67-46f6-9275-6c622e6b6963,rev?*%
%TF.SameCoordinates,Original*%
%TF.FileFunction,Copper,L1,Top*%
%TF.FilePolarity,Positive*%
%FSLAX46Y46*%
G04 Gerber Fmt 4.6, Leading zero omitted, Abs format (unit mm)*
G04 Created by KiCad (PCBNEW (6.0.8)) date 2022-10-01 01:52:07*
%MOMM*%
%LPD*%
G01*
G04 APERTURE LIST*
%TA.AperFunction,ViaPad*%
%ADD10C,1.300000*%
%TD*%
%TA.AperFunction,Conductor*%
%ADD11C,5.000000*%
%TD*%
%TA.AperFunction,Conductor*%
%ADD12C,6.000000*%
%TD*%
G04 APERTURE END LIST*
D10*
%TO.N,*%
X148844000Y-118618000D03*
X145745200Y-89408000D03*
X134061200Y-88900000D03*
X147320000Y-78232000D03*
X139700000Y-79248000D03*
X132080000Y-78232000D03*
%TD*%
D11*
%TO.N,*%
X145805400Y-76250000D02*
X142514600Y-76250000D01*
X142514600Y-76250000D02*
X139842000Y-78922600D01*
X148503400Y-78948000D02*
X145805400Y-76250000D01*
X148503400Y-85399600D02*
X148503400Y-78948000D01*
X145887200Y-88015800D02*
X148503400Y-85399600D01*
X145836400Y-90276400D02*
X145887200Y-90225600D01*
X145887200Y-90225600D02*
X145887200Y-88015800D01*
X145709400Y-90276400D02*
X145836400Y-90276400D01*
X141848600Y-94137200D02*
X145709400Y-90276400D01*
X141848600Y-96448600D02*
X141848600Y-94137200D01*
X139334000Y-98963200D02*
X141848600Y-96448600D01*
X131333000Y-98963200D02*
X139334000Y-98963200D01*
X129021600Y-96651800D02*
X131333000Y-98963200D01*
X129021600Y-92968800D02*
X129021600Y-96651800D01*
X139842000Y-78922600D02*
X137094000Y-76174600D01*
X133954000Y-76174600D02*
X132222000Y-77906600D01*
X137094000Y-76174600D02*
X133954000Y-76174600D01*
X133142000Y-110674600D02*
X145142000Y-110674600D01*
X133642000Y-102674600D02*
X133142000Y-103174600D01*
X141142000Y-102674600D02*
X133642000Y-102674600D01*
X133142000Y-103174600D02*
X133142000Y-110674600D01*
X145506200Y-105038800D02*
X143506200Y-105038800D01*
X143506200Y-105038800D02*
X141142000Y-102674600D01*
X145506200Y-106075200D02*
X145506200Y-105038800D01*
X139842000Y-87974600D02*
X136142000Y-91674600D01*
X139842000Y-78922600D02*
X139842000Y-87974600D01*
X136142000Y-91674600D02*
X134203200Y-89735800D01*
X134203200Y-89735800D02*
X134203200Y-88574600D01*
X132222000Y-77906600D02*
X130901200Y-79227400D01*
X130901200Y-79227400D02*
X130901200Y-84637600D01*
X130901200Y-84637600D02*
X134203200Y-87939600D01*
X134203200Y-87939600D02*
X134203200Y-88574600D01*
X145506200Y-107015000D02*
X145506200Y-106075200D01*
X152542000Y-89539800D02*
X157317200Y-84764600D01*
X145506200Y-106075200D02*
X150129000Y-101452400D01*
X152542000Y-92308400D02*
X152542000Y-89539800D01*
X150129000Y-101452400D02*
X150129000Y-94721400D01*
X150129000Y-94721400D02*
X152542000Y-92308400D01*
D12*
X157317200Y-70032600D02*
X147055600Y-59771000D01*
X157317200Y-84764600D02*
X157317200Y-70032600D01*
X126253000Y-87812600D02*
X126253000Y-90200200D01*
X147055600Y-59771000D02*
X132399800Y-59771000D01*
X132399800Y-59771000D02*
X122417600Y-69753200D01*
X122417600Y-69753200D02*
X122417600Y-84002600D01*
X122417600Y-84002600D02*
X126151400Y-87736400D01*
D11*
X126151400Y-87736400D02*
X126176800Y-87736400D01*
X126176800Y-87736400D02*
X126253000Y-87812600D01*
D12*
X126253000Y-90200200D02*
X129021600Y-92968800D01*
D11*
X146369800Y-114000000D02*
X149011400Y-111358400D01*
X149011400Y-111358400D02*
X149011400Y-110520200D01*
X145506200Y-107015000D02*
X133873000Y-107015000D01*
X145938000Y-107446800D02*
X145506200Y-107015000D01*
X144693400Y-114000000D02*
X146369800Y-114000000D01*
X149011400Y-110520200D02*
X145938000Y-107446800D01*
D12*
X144693400Y-114000000D02*
X134000000Y-114000000D01*
D11*
X148986000Y-118292600D02*
X144693400Y-114000000D01*
%TD*%
M02*
