%TF.GenerationSoftware,KiCad,Pcbnew,(6.0.8)*%
%TF.CreationDate,2022-10-01T01:52:07+02:00*%
%TF.ProjectId,ea_logobulb,65615f6c-6f67-46f6-9275-6c622e6b6963,rev?*%
%TF.SameCoordinates,Original*%
%TF.FileFunction,Copper,L2,Bot*%
%TF.FilePolarity,Positive*%
%FSLAX46Y46*%
G04 Gerber Fmt 4.6, Leading zero omitted, Abs format (unit mm)*
G04 Created by KiCad (PCBNEW (6.0.8)) date 2022-10-01 01:52:07*
%MOMM*%
%LPD*%
G01*
G04 APERTURE LIST*
G04 Aperture macros list*
%AMRoundRect*
0 Rectangle with rounded corners*
0 $1 Rounding radius*
0 $2 $3 $4 $5 $6 $7 $8 $9 X,Y pos of 4 corners*
0 Add a 4 corners polygon primitive as box body*
4,1,4,$2,$3,$4,$5,$6,$7,$8,$9,$2,$3,0*
0 Add four circle primitives for the rounded corners*
1,1,$1+$1,$2,$3*
1,1,$1+$1,$4,$5*
1,1,$1+$1,$6,$7*
1,1,$1+$1,$8,$9*
0 Add four rect primitives between the rounded corners*
20,1,$1+$1,$2,$3,$4,$5,0*
20,1,$1+$1,$4,$5,$6,$7,0*
20,1,$1+$1,$6,$7,$8,$9,0*
20,1,$1+$1,$8,$9,$2,$3,0*%
G04 Aperture macros list end*
%ADD10C,0.300000*%
%TA.AperFunction,NonConductor*%
%ADD11C,0.300000*%
%TD*%
%TA.AperFunction,NonConductor*%
%ADD12C,0.200000*%
%TD*%
%TA.AperFunction,SMDPad,CuDef*%
%ADD13R,5.560000X2.600000*%
%TD*%
%TA.AperFunction,SMDPad,CuDef*%
%ADD14C,17.800000*%
%TD*%
%TA.AperFunction,SMDPad,CuDef*%
%ADD15RoundRect,0.250000X-0.625000X0.375000X-0.625000X-0.375000X0.625000X-0.375000X0.625000X0.375000X0*%
%TD*%
%TA.AperFunction,SMDPad,CuDef*%
%ADD16RoundRect,0.250000X-0.728766X0.012260X-0.353766X-0.637260X0.728766X-0.012260X0.353766X0.637260X0*%
%TD*%
%TA.AperFunction,SMDPad,CuDef*%
%ADD17RoundRect,0.250000X-0.353766X0.637260X-0.728766X-0.012260X0.353766X-0.637260X0.728766X0.012260X0*%
%TD*%
%TA.AperFunction,ViaPad*%
%ADD18C,1.300000*%
%TD*%
%TA.AperFunction,Conductor*%
%ADD19C,0.609600*%
%TD*%
%TA.AperFunction,Conductor*%
%ADD20C,2.000000*%
%TD*%
G04 APERTURE END LIST*
D10*
D11*
X133857142Y-42378571D02*
X133142857Y-42378571D01*
X133071428Y-43092857D01*
X133142857Y-43021428D01*
X133285714Y-42950000D01*
X133642857Y-42950000D01*
X133785714Y-43021428D01*
X133857142Y-43092857D01*
X133928571Y-43235714D01*
X133928571Y-43592857D01*
X133857142Y-43735714D01*
X133785714Y-43807142D01*
X133642857Y-43878571D01*
X133285714Y-43878571D01*
X133142857Y-43807142D01*
X133071428Y-43735714D01*
X135214285Y-42878571D02*
X135214285Y-43878571D01*
X134857142Y-42307142D02*
X134500000Y-43378571D01*
X135428571Y-43378571D01*
X136000000Y-43735714D02*
X136071428Y-43807142D01*
X136000000Y-43878571D01*
X135928571Y-43807142D01*
X136000000Y-43735714D01*
X136000000Y-43878571D01*
X137000000Y-42378571D02*
X137142857Y-42378571D01*
X137285714Y-42450000D01*
X137357142Y-42521428D01*
X137428571Y-42664285D01*
X137500000Y-42950000D01*
X137500000Y-43307142D01*
X137428571Y-43592857D01*
X137357142Y-43735714D01*
X137285714Y-43807142D01*
X137142857Y-43878571D01*
X137000000Y-43878571D01*
X136857142Y-43807142D01*
X136785714Y-43735714D01*
X136714285Y-43592857D01*
X136642857Y-43307142D01*
X136642857Y-42950000D01*
X136714285Y-42664285D01*
X136785714Y-42521428D01*
X136857142Y-42450000D01*
X137000000Y-42378571D01*
X138428571Y-42378571D02*
X138571428Y-42378571D01*
X138714285Y-42450000D01*
X138785714Y-42521428D01*
X138857142Y-42664285D01*
X138928571Y-42950000D01*
X138928571Y-43307142D01*
X138857142Y-43592857D01*
X138785714Y-43735714D01*
X138714285Y-43807142D01*
X138571428Y-43878571D01*
X138428571Y-43878571D01*
X138285714Y-43807142D01*
X138214285Y-43735714D01*
X138142857Y-43592857D01*
X138071428Y-43307142D01*
X138071428Y-42950000D01*
X138142857Y-42664285D01*
X138214285Y-42521428D01*
X138285714Y-42450000D01*
X138428571Y-42378571D01*
X139857142Y-42378571D02*
X140000000Y-42378571D01*
X140142857Y-42450000D01*
X140214285Y-42521428D01*
X140285714Y-42664285D01*
X140357142Y-42950000D01*
X140357142Y-43307142D01*
X140285714Y-43592857D01*
X140214285Y-43735714D01*
X140142857Y-43807142D01*
X140000000Y-43878571D01*
X139857142Y-43878571D01*
X139714285Y-43807142D01*
X139642857Y-43735714D01*
X139571428Y-43592857D01*
X139500000Y-43307142D01*
X139500000Y-42950000D01*
X139571428Y-42664285D01*
X139642857Y-42521428D01*
X139714285Y-42450000D01*
X139857142Y-42378571D01*
X141285714Y-42378571D02*
X141428571Y-42378571D01*
X141571428Y-42450000D01*
X141642857Y-42521428D01*
X141714285Y-42664285D01*
X141785714Y-42950000D01*
X141785714Y-43307142D01*
X141714285Y-43592857D01*
X141642857Y-43735714D01*
X141571428Y-43807142D01*
X141428571Y-43878571D01*
X141285714Y-43878571D01*
X141142857Y-43807142D01*
X141071428Y-43735714D01*
X141000000Y-43592857D01*
X140928571Y-43307142D01*
X140928571Y-42950000D01*
X141000000Y-42664285D01*
X141071428Y-42521428D01*
X141142857Y-42450000D01*
X141285714Y-42378571D01*
X143571428Y-43878571D02*
X143571428Y-42878571D01*
X143571428Y-43021428D02*
X143642857Y-42950000D01*
X143785714Y-42878571D01*
X144000000Y-42878571D01*
X144142857Y-42950000D01*
X144214285Y-43092857D01*
X144214285Y-43878571D01*
X144214285Y-43092857D02*
X144285714Y-42950000D01*
X144428571Y-42878571D01*
X144642857Y-42878571D01*
X144785714Y-42950000D01*
X144857142Y-43092857D01*
X144857142Y-43878571D01*
X145571428Y-43878571D02*
X145571428Y-42878571D01*
X145571428Y-43021428D02*
X145642857Y-42950000D01*
X145785714Y-42878571D01*
X146000000Y-42878571D01*
X146142857Y-42950000D01*
X146214285Y-43092857D01*
X146214285Y-43878571D01*
X146214285Y-43092857D02*
X146285714Y-42950000D01*
X146428571Y-42878571D01*
X146642857Y-42878571D01*
X146785714Y-42950000D01*
X146857142Y-43092857D01*
X146857142Y-43878571D01*
D12*
X113000000Y-48500000D02*
X113000000Y-44413580D01*
X167000000Y-48500000D02*
X167000000Y-44413580D01*
X113000000Y-45000000D02*
X167000000Y-45000000D01*
X113000000Y-45000000D02*
X167000000Y-45000000D01*
X113000000Y-45000000D02*
X114126504Y-45586421D01*
X113000000Y-45000000D02*
X114126504Y-44413579D01*
X167000000Y-45000000D02*
X165873496Y-44413579D01*
X167000000Y-45000000D02*
X165873496Y-45586421D01*
D10*
D11*
X173378571Y-95000000D02*
X173378571Y-94000000D01*
X174878571Y-94642857D01*
X173878571Y-92785714D02*
X174878571Y-92785714D01*
X173307142Y-93142857D02*
X174378571Y-93500000D01*
X174378571Y-92571428D01*
X174735714Y-92000000D02*
X174807142Y-91928571D01*
X174878571Y-92000000D01*
X174807142Y-92071428D01*
X174735714Y-92000000D01*
X174878571Y-92000000D01*
X173378571Y-91000000D02*
X173378571Y-90857142D01*
X173450000Y-90714285D01*
X173521428Y-90642857D01*
X173664285Y-90571428D01*
X173950000Y-90500000D01*
X174307142Y-90500000D01*
X174592857Y-90571428D01*
X174735714Y-90642857D01*
X174807142Y-90714285D01*
X174878571Y-90857142D01*
X174878571Y-91000000D01*
X174807142Y-91142857D01*
X174735714Y-91214285D01*
X174592857Y-91285714D01*
X174307142Y-91357142D01*
X173950000Y-91357142D01*
X173664285Y-91285714D01*
X173521428Y-91214285D01*
X173450000Y-91142857D01*
X173378571Y-91000000D01*
X173378571Y-89571428D02*
X173378571Y-89428571D01*
X173450000Y-89285714D01*
X173521428Y-89214285D01*
X173664285Y-89142857D01*
X173950000Y-89071428D01*
X174307142Y-89071428D01*
X174592857Y-89142857D01*
X174735714Y-89214285D01*
X174807142Y-89285714D01*
X174878571Y-89428571D01*
X174878571Y-89571428D01*
X174807142Y-89714285D01*
X174735714Y-89785714D01*
X174592857Y-89857142D01*
X174307142Y-89928571D01*
X173950000Y-89928571D01*
X173664285Y-89857142D01*
X173521428Y-89785714D01*
X173450000Y-89714285D01*
X173378571Y-89571428D01*
X173378571Y-88142857D02*
X173378571Y-88000000D01*
X173450000Y-87857142D01*
X173521428Y-87785714D01*
X173664285Y-87714285D01*
X173950000Y-87642857D01*
X174307142Y-87642857D01*
X174592857Y-87714285D01*
X174735714Y-87785714D01*
X174807142Y-87857142D01*
X174878571Y-88000000D01*
X174878571Y-88142857D01*
X174807142Y-88285714D01*
X174735714Y-88357142D01*
X174592857Y-88428571D01*
X174307142Y-88500000D01*
X173950000Y-88500000D01*
X173664285Y-88428571D01*
X173521428Y-88357142D01*
X173450000Y-88285714D01*
X173378571Y-88142857D01*
X173378571Y-86714285D02*
X173378571Y-86571428D01*
X173450000Y-86428571D01*
X173521428Y-86357142D01*
X173664285Y-86285714D01*
X173950000Y-86214285D01*
X174307142Y-86214285D01*
X174592857Y-86285714D01*
X174735714Y-86357142D01*
X174807142Y-86428571D01*
X174878571Y-86571428D01*
X174878571Y-86714285D01*
X174807142Y-86857142D01*
X174735714Y-86928571D01*
X174592857Y-87000000D01*
X174307142Y-87071428D01*
X173950000Y-87071428D01*
X173664285Y-87000000D01*
X173521428Y-86928571D01*
X173450000Y-86857142D01*
X173378571Y-86714285D01*
X174878571Y-84428571D02*
X173878571Y-84428571D01*
X174021428Y-84428571D02*
X173950000Y-84357142D01*
X173878571Y-84214285D01*
X173878571Y-84000000D01*
X173950000Y-83857142D01*
X174092857Y-83785714D01*
X174878571Y-83785714D01*
X174092857Y-83785714D02*
X173950000Y-83714285D01*
X173878571Y-83571428D01*
X173878571Y-83357142D01*
X173950000Y-83214285D01*
X174092857Y-83142857D01*
X174878571Y-83142857D01*
X174878571Y-82428571D02*
X173878571Y-82428571D01*
X174021428Y-82428571D02*
X173950000Y-82357142D01*
X173878571Y-82214285D01*
X173878571Y-82000000D01*
X173950000Y-81857142D01*
X174092857Y-81785714D01*
X174878571Y-81785714D01*
X174092857Y-81785714D02*
X173950000Y-81714285D01*
X173878571Y-81571428D01*
X173878571Y-81357142D01*
X173950000Y-81214285D01*
X174092857Y-81142857D01*
X174878571Y-81142857D01*
D12*
X173500000Y-51000000D02*
X176586420Y-51000000D01*
X173500000Y-125000000D02*
X176586420Y-125000000D01*
X176000000Y-51000000D02*
X176000000Y-125000000D01*
X176000000Y-51000000D02*
X176000000Y-125000000D01*
X176000000Y-51000000D02*
X175413579Y-52126504D01*
X176000000Y-51000000D02*
X176586421Y-52126504D01*
X176000000Y-125000000D02*
X176586421Y-123873496D01*
X176000000Y-125000000D02*
X175413579Y-123873496D01*
D13*
%TO.P,REF\u002A\u002A,1*%
%TO.N,N/C*%
X140716000Y-118585000D03*
X140716000Y-94775000D03*
D14*
%TO.P,REF\u002A\u002A,2*%
X140716000Y-106680000D03*
%TD*%
D15*
%TO.P,REF\u002A\u002A,2*%
%TO.N,N/C*%
X139700000Y-80648000D03*
%TO.P,REF\u002A\u002A,1*%
X139700000Y-77848000D03*
%TD*%
D16*
%TO.P,REF\u002A\u002A,1*%
%TO.N,N/C*%
X133412000Y-87687564D03*
%TO.P,REF\u002A\u002A,2*%
X134812000Y-90112436D03*
%TD*%
D17*
%TO.P,REF\u002A\u002A,2*%
%TO.N,N/C*%
X131380000Y-79444436D03*
%TO.P,REF\u002A\u002A,1*%
X132780000Y-77019564D03*
%TD*%
D16*
%TO.P,REF\u002A\u002A,2*%
%TO.N,N/C*%
X148020000Y-79444436D03*
%TO.P,REF\u002A\u002A,1*%
X146620000Y-77019564D03*
%TD*%
D17*
%TO.P,REF\u002A\u002A,2*%
%TO.N,N/C*%
X145096000Y-90620436D03*
%TO.P,REF\u002A\u002A,1*%
X146496000Y-88195564D03*
%TD*%
D18*
%TO.N,*%
X148844000Y-118618000D03*
X145745200Y-89408000D03*
X134061200Y-88900000D03*
X147320000Y-78232000D03*
X139700000Y-79248000D03*
X132080000Y-78232000D03*
%TD*%
D19*
%TO.N,*%
X146496000Y-88195564D02*
X147523200Y-89222764D01*
X147523200Y-89222764D02*
X147523200Y-91592400D01*
X147523200Y-91592400D02*
X144340600Y-94775000D01*
X144340600Y-94775000D02*
X140716000Y-94775000D01*
D20*
X140858000Y-110164600D02*
X148986000Y-118292600D01*
X140858000Y-106354600D02*
X140858000Y-110164600D01*
D19*
X131522000Y-79119036D02*
X131522000Y-78606600D01*
X131522000Y-78606600D02*
X132222000Y-77906600D01*
X139842000Y-80322600D02*
X139842000Y-78922600D01*
X148162000Y-79119036D02*
X148162000Y-78606600D01*
X148162000Y-78606600D02*
X147462000Y-77906600D01*
X145238000Y-90295036D02*
X145238000Y-89731800D01*
X145238000Y-89731800D02*
X145887200Y-89082600D01*
X134954000Y-89787036D02*
X134954000Y-89325400D01*
X134954000Y-89325400D02*
X134203200Y-88574600D01*
X146496000Y-88195564D02*
X145897600Y-87597164D01*
X145897600Y-87597164D02*
X145897600Y-77741964D01*
X145897600Y-77741964D02*
X146620000Y-77019564D01*
X139700000Y-77848000D02*
X140528436Y-77019564D01*
X140528436Y-77019564D02*
X146620000Y-77019564D01*
X132780000Y-77019564D02*
X138871564Y-77019564D01*
X138871564Y-77019564D02*
X139700000Y-77848000D01*
X133412000Y-87568000D02*
X133604000Y-87376000D01*
X133412000Y-87687564D02*
X133412000Y-87568000D01*
X133604000Y-87376000D02*
X133604000Y-77843564D01*
X133604000Y-77843564D02*
X132780000Y-77019564D01*
%TD*%
M02*
