%TF.GenerationSoftware,KiCad,Pcbnew,(6.0.8)*%
%TF.CreationDate,2022-10-01T01:52:07+02:00*%
%TF.ProjectId,ea_logobulb,65615f6c-6f67-46f6-9275-6c622e6b6963,rev?*%
%TF.SameCoordinates,Original*%
%TF.FileFunction,Legend,Top*%
%TF.FilePolarity,Positive*%
%FSLAX46Y46*%
G04 Gerber Fmt 4.6, Leading zero omitted, Abs format (unit mm)*
G04 Created by KiCad (PCBNEW (6.0.8)) date 2022-10-01 01:52:07*
%MOMM*%
%LPD*%
G01*
G04 APERTURE LIST*
%ADD10C,0.150000*%
%ADD11C,0.300000*%
%ADD12C,3.200000*%
G04 APERTURE END LIST*
D10*
%TO.C,REF\u002A\u002A*%
X138544466Y-51948980D02*
X138211133Y-51472790D01*
X137973038Y-51948980D02*
X137973038Y-50948980D01*
X138353990Y-50948980D01*
X138449228Y-50996600D01*
X138496847Y-51044219D01*
X138544466Y-51139457D01*
X138544466Y-51282314D01*
X138496847Y-51377552D01*
X138449228Y-51425171D01*
X138353990Y-51472790D01*
X137973038Y-51472790D01*
X138973038Y-51425171D02*
X139306371Y-51425171D01*
X139449228Y-51948980D02*
X138973038Y-51948980D01*
X138973038Y-50948980D01*
X139449228Y-50948980D01*
X140211133Y-51425171D02*
X139877800Y-51425171D01*
X139877800Y-51948980D02*
X139877800Y-50948980D01*
X140353990Y-50948980D01*
X140877800Y-50948980D02*
X140877800Y-51187076D01*
X140639704Y-51091838D02*
X140877800Y-51187076D01*
X141115895Y-51091838D01*
X140734942Y-51377552D02*
X140877800Y-51187076D01*
X141020657Y-51377552D01*
X141639704Y-50948980D02*
X141639704Y-51187076D01*
X141401609Y-51091838D02*
X141639704Y-51187076D01*
X141877800Y-51091838D01*
X141496847Y-51377552D02*
X141639704Y-51187076D01*
X141782561Y-51377552D01*
D11*
%TO.C,G\u002A\u002A\u002A*%
X138357428Y-88138000D02*
X138212285Y-88065428D01*
X137994571Y-88065428D01*
X137776857Y-88138000D01*
X137631714Y-88283142D01*
X137559142Y-88428285D01*
X137486571Y-88718571D01*
X137486571Y-88936285D01*
X137559142Y-89226571D01*
X137631714Y-89371714D01*
X137776857Y-89516857D01*
X137994571Y-89589428D01*
X138139714Y-89589428D01*
X138357428Y-89516857D01*
X138430000Y-89444285D01*
X138430000Y-88936285D01*
X138139714Y-88936285D01*
X139300857Y-88065428D02*
X139300857Y-88428285D01*
X138938000Y-88283142D02*
X139300857Y-88428285D01*
X139663714Y-88283142D01*
X139083142Y-88718571D02*
X139300857Y-88428285D01*
X139518571Y-88718571D01*
X140462000Y-88065428D02*
X140462000Y-88428285D01*
X140099142Y-88283142D02*
X140462000Y-88428285D01*
X140824857Y-88283142D01*
X140244285Y-88718571D02*
X140462000Y-88428285D01*
X140679714Y-88718571D01*
X141623142Y-88065428D02*
X141623142Y-88428285D01*
X141260285Y-88283142D02*
X141623142Y-88428285D01*
X141986000Y-88283142D01*
X141405428Y-88718571D02*
X141623142Y-88428285D01*
X141840857Y-88718571D01*
G36*
X168158639Y-49004713D02*
G01*
X168158639Y-128795288D01*
X111241362Y-128795288D01*
X111241362Y-76231320D01*
X119759178Y-76231320D01*
X119766118Y-78480827D01*
X120025962Y-80707096D01*
X120532784Y-82886999D01*
X121280656Y-84997409D01*
X122263654Y-87015200D01*
X123475849Y-88917243D01*
X124024000Y-89641007D01*
X125052525Y-91054205D01*
X125872522Y-92461692D01*
X126526584Y-93945390D01*
X126988067Y-95342121D01*
X127468854Y-96740718D01*
X128043036Y-97906956D01*
X128726581Y-98862925D01*
X129535455Y-99630716D01*
X130485624Y-100232419D01*
X130544347Y-100262157D01*
X131044673Y-100497646D01*
X131517144Y-100678825D01*
X132006194Y-100811804D01*
X132556256Y-100902693D01*
X133211763Y-100957600D01*
X134017150Y-100982637D01*
X135016850Y-100983911D01*
X135733983Y-100975733D01*
X136679981Y-100960716D01*
X137401694Y-100943501D01*
X137940797Y-100919735D01*
X138338968Y-100885063D01*
X138637879Y-100835131D01*
X138879208Y-100765585D01*
X139104628Y-100672070D01*
X139234555Y-100610004D01*
X139829990Y-100231801D01*
X140532662Y-99633408D01*
X141328529Y-98831345D01*
X142203551Y-97842131D01*
X143143687Y-96682285D01*
X144134895Y-95368326D01*
X145163134Y-93916773D01*
X146061853Y-92577818D01*
X147290659Y-90583143D01*
X148317224Y-88661967D01*
X149139158Y-86823729D01*
X149754070Y-85077866D01*
X150159567Y-83433815D01*
X150353259Y-81901014D01*
X150332754Y-80488900D01*
X150095662Y-79206909D01*
X149706394Y-78194765D01*
X149041593Y-77147787D01*
X148176798Y-76261662D01*
X147139229Y-75558993D01*
X145956108Y-75062386D01*
X145921548Y-75051787D01*
X144738774Y-74823763D01*
X143569008Y-74860497D01*
X142416880Y-75160912D01*
X141287024Y-75723928D01*
X140446831Y-76326173D01*
X139756396Y-76888540D01*
X139030030Y-76237405D01*
X138017199Y-75472460D01*
X136972709Y-74969634D01*
X135885589Y-74725885D01*
X134744863Y-74738170D01*
X134061869Y-74859643D01*
X132787268Y-75283558D01*
X131676426Y-75916219D01*
X130734772Y-76752665D01*
X129967733Y-77787936D01*
X129380736Y-79017071D01*
X129315707Y-79197223D01*
X129170361Y-79672887D01*
X129080542Y-80142773D01*
X129035385Y-80693504D01*
X129024026Y-81411698D01*
X129024452Y-81519372D01*
X129104130Y-82810715D01*
X129336594Y-84072056D01*
X129733649Y-85327003D01*
X130307100Y-86599166D01*
X131068750Y-87912152D01*
X132030407Y-89289572D01*
X133203873Y-90755033D01*
X134225603Y-91921163D01*
X134860102Y-92577551D01*
X135400312Y-93023952D01*
X135885250Y-93280529D01*
X136353934Y-93367443D01*
X136845382Y-93304856D01*
X136883860Y-93294802D01*
X137459755Y-93013814D01*
X137750670Y-92719142D01*
X138043577Y-92250303D01*
X138179686Y-91807881D01*
X138148675Y-91355312D01*
X137940224Y-90856030D01*
X137544013Y-90273471D01*
X136949720Y-89571067D01*
X136822532Y-89430855D01*
X135569685Y-87985420D01*
X134548895Y-86639743D01*
X133752235Y-85378924D01*
X133171776Y-84188060D01*
X132799590Y-83052252D01*
X132627750Y-81956599D01*
X132613352Y-81519372D01*
X132658720Y-80701248D01*
X132805938Y-80066994D01*
X133080142Y-79545813D01*
X133472590Y-79099149D01*
X134177575Y-78583352D01*
X134935854Y-78317784D01*
X135713734Y-78301329D01*
X136477522Y-78532874D01*
X137193526Y-79011304D01*
X137419771Y-79229671D01*
X137676750Y-79515198D01*
X137791474Y-79735648D01*
X137792813Y-80002288D01*
X137718985Y-80382822D01*
X137583585Y-81422082D01*
X137654678Y-82305933D01*
X137930722Y-83028995D01*
X138410174Y-83585886D01*
X138693829Y-83781985D01*
X139315219Y-84051610D01*
X139877830Y-84079830D01*
X140430539Y-83868445D01*
X140465875Y-83847316D01*
X141041388Y-83347668D01*
X141420516Y-82678411D01*
X141597773Y-81855127D01*
X141567675Y-80893398D01*
X141549672Y-80768158D01*
X141399301Y-79798996D01*
X141912740Y-79363003D01*
X142452750Y-78993177D01*
X143099339Y-78680280D01*
X143749578Y-78466669D01*
X144266836Y-78394241D01*
X144782654Y-78488627D01*
X145360754Y-78734452D01*
X145896957Y-79075721D01*
X146287085Y-79456437D01*
X146314168Y-79494693D01*
X146628646Y-80171177D01*
X146788174Y-81009882D01*
X146783078Y-81950242D01*
X146750411Y-82226476D01*
X146473989Y-83527625D01*
X146007621Y-84961429D01*
X145369888Y-86495450D01*
X144579371Y-88097249D01*
X143654653Y-89734390D01*
X142614313Y-91374433D01*
X141476934Y-92984941D01*
X140261096Y-94533475D01*
X138985381Y-95987598D01*
X138686181Y-96304518D01*
X138236894Y-96754021D01*
X137839763Y-97083995D01*
X137441987Y-97310758D01*
X136990762Y-97450627D01*
X136433287Y-97519919D01*
X135716760Y-97534950D01*
X134788376Y-97512038D01*
X134779581Y-97511733D01*
X133722939Y-97452281D01*
X132887885Y-97335305D01*
X132233482Y-97129766D01*
X131718795Y-96804630D01*
X131302888Y-96328857D01*
X130944824Y-95671411D01*
X130603667Y-94801254D01*
X130398424Y-94189990D01*
X129872525Y-92680591D01*
X129324252Y-91360930D01*
X128713736Y-90155354D01*
X128001106Y-88988211D01*
X127146493Y-87783846D01*
X126750103Y-87267230D01*
X125593503Y-85580167D01*
X124683849Y-83795041D01*
X124020798Y-81910844D01*
X123604009Y-79926566D01*
X123433139Y-77841198D01*
X123428489Y-77463351D01*
X123504856Y-75636331D01*
X123753303Y-73953644D01*
X124190067Y-72344100D01*
X124831381Y-70736507D01*
X125082246Y-70211280D01*
X126098980Y-68446025D01*
X127303201Y-66853995D01*
X128674452Y-65442585D01*
X130192278Y-64219191D01*
X131836226Y-63191206D01*
X133585838Y-62366027D01*
X135420661Y-61751048D01*
X137320239Y-61353665D01*
X139264116Y-61181271D01*
X141231838Y-61241262D01*
X143202950Y-61541034D01*
X145156995Y-62087980D01*
X146310404Y-62536866D01*
X147925680Y-63362411D01*
X149494656Y-64409050D01*
X150960770Y-65632107D01*
X152267457Y-66986905D01*
X152837916Y-67692587D01*
X153338166Y-68429591D01*
X153868881Y-69342487D01*
X154390103Y-70350690D01*
X154861872Y-71373617D01*
X155244230Y-72330683D01*
X155448280Y-72956776D01*
X155876322Y-74954819D01*
X156052300Y-77002545D01*
X155978210Y-79070937D01*
X155656046Y-81130972D01*
X155087801Y-83153633D01*
X154673258Y-84234532D01*
X154268708Y-85124839D01*
X153812720Y-85982059D01*
X153269303Y-86865713D01*
X152602465Y-87835323D01*
X152003380Y-88649834D01*
X151009059Y-90073854D01*
X150176303Y-91498030D01*
X149492074Y-92961701D01*
X148943339Y-94504206D01*
X148517061Y-96164885D01*
X148200203Y-97983075D01*
X147979732Y-99998115D01*
X147906358Y-101013757D01*
X147788380Y-101687917D01*
X147503488Y-102243984D01*
X147015086Y-102737609D01*
X146563146Y-103056442D01*
X145392751Y-103674454D01*
X143977577Y-104197726D01*
X142321690Y-104625418D01*
X140429152Y-104956691D01*
X138304027Y-105190703D01*
X135950380Y-105326617D01*
X135510995Y-105340372D01*
X134536642Y-105370474D01*
X133788599Y-105402686D01*
X133227213Y-105440900D01*
X132812833Y-105489004D01*
X132505804Y-105550891D01*
X132266476Y-105630451D01*
X132183483Y-105666849D01*
X131635272Y-106047727D01*
X131304833Y-106579642D01*
X131189206Y-107267456D01*
X131189005Y-107300970D01*
X131234254Y-107765933D01*
X131408581Y-108135598D01*
X131598898Y-108374342D01*
X131978483Y-108708770D01*
X132402590Y-108945122D01*
X132496542Y-108976657D01*
X132773873Y-109017238D01*
X133269532Y-109053087D01*
X133935893Y-109082257D01*
X134725328Y-109102802D01*
X135590214Y-109112777D01*
X135843456Y-109113412D01*
X138025658Y-109140422D01*
X139982850Y-109218876D01*
X141709638Y-109348000D01*
X143200627Y-109527017D01*
X144450424Y-109755151D01*
X145453635Y-110031626D01*
X146204866Y-110355667D01*
X146639607Y-110666332D01*
X146927416Y-110995478D01*
X146978232Y-111244450D01*
X146784077Y-111465704D01*
X146492276Y-111635174D01*
X146147095Y-111792394D01*
X145760749Y-111926003D01*
X145308555Y-112038302D01*
X144765835Y-112131594D01*
X144107907Y-112208180D01*
X143310092Y-112270365D01*
X142347709Y-112320449D01*
X141196078Y-112360736D01*
X139830519Y-112393528D01*
X138226352Y-112421126D01*
X138037697Y-112423894D01*
X136663375Y-112444489D01*
X135529601Y-112463712D01*
X134610970Y-112482967D01*
X133882074Y-112503658D01*
X133317509Y-112527189D01*
X132891868Y-112554964D01*
X132579745Y-112588388D01*
X132355734Y-112628864D01*
X132194428Y-112677796D01*
X132070423Y-112736590D01*
X132038182Y-112755460D01*
X131533260Y-113203514D01*
X131250231Y-113794530D01*
X131189005Y-114300000D01*
X131306313Y-114983690D01*
X131652087Y-115536426D01*
X132038182Y-115844407D01*
X132178282Y-115916462D01*
X132355769Y-115974923D01*
X132601185Y-116022101D01*
X132945074Y-116060309D01*
X133417977Y-116091858D01*
X134050438Y-116119060D01*
X134872999Y-116144227D01*
X135916202Y-116169670D01*
X136508377Y-116182748D01*
X138295018Y-116235472D01*
X139842779Y-116315700D01*
X141177982Y-116430767D01*
X142326949Y-116588007D01*
X143316003Y-116794757D01*
X144171466Y-117058350D01*
X144919660Y-117386121D01*
X145586908Y-117785405D01*
X146199533Y-118263537D01*
X146783855Y-118827852D01*
X147052646Y-119120939D01*
X147445343Y-119543276D01*
X147801686Y-119891436D01*
X148066844Y-120113284D01*
X148144503Y-120159143D01*
X148696971Y-120268555D01*
X149301964Y-120214519D01*
X149686307Y-120078361D01*
X150157179Y-119694646D01*
X150477832Y-119144761D01*
X150603817Y-118506570D01*
X150604215Y-118470389D01*
X150490961Y-117947204D01*
X150163852Y-117327224D01*
X149643126Y-116639908D01*
X148949021Y-115914713D01*
X148675782Y-115663554D01*
X148317971Y-115333403D01*
X148062510Y-115075880D01*
X147953150Y-114935808D01*
X147954043Y-114924161D01*
X148092852Y-114837989D01*
X148387068Y-114665268D01*
X148624955Y-114528227D01*
X149087388Y-114212973D01*
X149529809Y-113832347D01*
X149668693Y-113687096D01*
X150238039Y-112856930D01*
X150566921Y-111965120D01*
X150663666Y-111044053D01*
X150536602Y-110126115D01*
X150194056Y-109243691D01*
X149644356Y-108429169D01*
X148895829Y-107714934D01*
X147987353Y-107148422D01*
X147298266Y-106806381D01*
X148120337Y-106330939D01*
X148884250Y-105811638D01*
X149633482Y-105164415D01*
X150304754Y-104453737D01*
X150834784Y-103744073D01*
X151066066Y-103329996D01*
X151226998Y-102956762D01*
X151343536Y-102589933D01*
X151428193Y-102163977D01*
X151493477Y-101613360D01*
X151551901Y-100872550D01*
X151561126Y-100736803D01*
X151758039Y-98704638D01*
X152067651Y-96886639D01*
X152500475Y-95251419D01*
X153067023Y-93767587D01*
X153777809Y-92403756D01*
X154643345Y-91128536D01*
X154880811Y-90825283D01*
X156216141Y-88997468D01*
X157320084Y-87112139D01*
X158214837Y-85123461D01*
X158922604Y-82985601D01*
X159197728Y-81913029D01*
X159325228Y-81352651D01*
X159420162Y-80871195D01*
X159487380Y-80412526D01*
X159531731Y-79920506D01*
X159558065Y-79338998D01*
X159571231Y-78611865D01*
X159576079Y-77682970D01*
X159576376Y-77529843D01*
X159569243Y-76339249D01*
X159537256Y-75350922D01*
X159471269Y-74501627D01*
X159362136Y-73728127D01*
X159200711Y-72967186D01*
X158977847Y-72155568D01*
X158684399Y-71230037D01*
X158650363Y-71127411D01*
X157808024Y-69002013D01*
X156739414Y-67013541D01*
X155440872Y-65156272D01*
X153908739Y-63424483D01*
X153417621Y-62942458D01*
X151707879Y-61497289D01*
X149835902Y-60254673D01*
X147824063Y-59225698D01*
X145694737Y-58421455D01*
X143470298Y-57853031D01*
X142958115Y-57758620D01*
X142289370Y-57652493D01*
X141691874Y-57581498D01*
X141091759Y-57541829D01*
X140415156Y-57529683D01*
X139588195Y-57541255D01*
X139035079Y-57556579D01*
X137283630Y-57661749D01*
X135705373Y-57876046D01*
X134223153Y-58219446D01*
X132759814Y-58711926D01*
X131238202Y-59373462D01*
X130391100Y-59794624D01*
X128464350Y-60934839D01*
X126690702Y-62282175D01*
X125084732Y-63816710D01*
X123661020Y-65518517D01*
X122434143Y-67367671D01*
X121418681Y-69344247D01*
X120629212Y-71428319D01*
X120080314Y-73599963D01*
X120011070Y-73981702D01*
X119759178Y-76231320D01*
X111241362Y-76231320D01*
X111241362Y-49004713D01*
X168158639Y-49004713D01*
G37*
%TD*%
%LPC*%
D12*
%TO.C,REF\u002A\u002A*%
X139877800Y-55346600D03*
%TD*%
M02*
