%TF.GenerationSoftware,KiCad,Pcbnew,(6.0.8)*%
%TF.CreationDate,2022-10-01T01:52:07+02:00*%
%TF.ProjectId,ea_logobulb,65615f6c-6f67-46f6-9275-6c622e6b6963,rev?*%
%TF.SameCoordinates,Original*%
%TF.FileFunction,Legend,Bot*%
%TF.FilePolarity,Positive*%
%FSLAX46Y46*%
G04 Gerber Fmt 4.6, Leading zero omitted, Abs format (unit mm)*
G04 Created by KiCad (PCBNEW (6.0.8)) date 2022-10-01 01:52:07*
%MOMM*%
%LPD*%
G01*
G04 APERTURE LIST*
G04 Aperture macros list*
%AMRoundRect*
0 Rectangle with rounded corners*
0 $1 Rounding radius*
0 $2 $3 $4 $5 $6 $7 $8 $9 X,Y pos of 4 corners*
0 Add a 4 corners polygon primitive as box body*
4,1,4,$2,$3,$4,$5,$6,$7,$8,$9,$2,$3,0*
0 Add four circle primitives for the rounded corners*
1,1,$1+$1,$2,$3*
1,1,$1+$1,$4,$5*
1,1,$1+$1,$6,$7*
1,1,$1+$1,$8,$9*
0 Add four rect primitives between the rounded corners*
20,1,$1+$1,$2,$3,$4,$5,0*
20,1,$1+$1,$4,$5,$6,$7,0*
20,1,$1+$1,$6,$7,$8,$9,0*
20,1,$1+$1,$8,$9,$2,$3,0*%
G04 Aperture macros list end*
%ADD10C,0.300000*%
%ADD11C,0.120000*%
%ADD12R,5.560000X2.600000*%
%ADD13C,17.800000*%
%ADD14C,3.200000*%
%ADD15RoundRect,0.250000X-0.625000X0.375000X-0.625000X-0.375000X0.625000X-0.375000X0.625000X0.375000X0*%
%ADD16RoundRect,0.250000X-0.728766X0.012260X-0.353766X-0.637260X0.728766X-0.012260X0.353766X0.637260X0*%
%ADD17RoundRect,0.250000X-0.353766X0.637260X-0.728766X-0.012260X0.353766X-0.637260X0.728766X0.012260X0*%
G04 APERTURE END LIST*
D10*
%TO.C,G\u002A\u002A\u002A*%
X141042571Y-88138000D02*
X141187714Y-88065428D01*
X141405428Y-88065428D01*
X141623142Y-88138000D01*
X141768285Y-88283142D01*
X141840857Y-88428285D01*
X141913428Y-88718571D01*
X141913428Y-88936285D01*
X141840857Y-89226571D01*
X141768285Y-89371714D01*
X141623142Y-89516857D01*
X141405428Y-89589428D01*
X141260285Y-89589428D01*
X141042571Y-89516857D01*
X140970000Y-89444285D01*
X140970000Y-88936285D01*
X141260285Y-88936285D01*
X140099142Y-88065428D02*
X140099142Y-88428285D01*
X140462000Y-88283142D02*
X140099142Y-88428285D01*
X139736285Y-88283142D01*
X140316857Y-88718571D02*
X140099142Y-88428285D01*
X139881428Y-88718571D01*
X138938000Y-88065428D02*
X138938000Y-88428285D01*
X139300857Y-88283142D02*
X138938000Y-88428285D01*
X138575142Y-88283142D01*
X139155714Y-88718571D02*
X138938000Y-88428285D01*
X138720285Y-88718571D01*
X137776857Y-88065428D02*
X137776857Y-88428285D01*
X138139714Y-88283142D02*
X137776857Y-88428285D01*
X137414000Y-88283142D01*
X137994571Y-88718571D02*
X137776857Y-88428285D01*
X137559142Y-88718571D01*
D11*
%TO.C,REF\u002A\u002A*%
X145601000Y-117150000D02*
X145601000Y-115542910D01*
X135831000Y-117150000D02*
X135831000Y-115542910D01*
X135831000Y-96210000D02*
X135831000Y-97817090D01*
X143716000Y-117150000D02*
X145601000Y-117150000D01*
X137716000Y-117150000D02*
X135831000Y-117150000D01*
X145601000Y-96210000D02*
X145601000Y-97817090D01*
X137716000Y-96210000D02*
X135831000Y-96210000D01*
X143716000Y-96210000D02*
X145601000Y-96210000D01*
X135834832Y-97814979D02*
G75*
G03*
X135831000Y-115542910I4881167J-8865021D01*
G01*
X145601000Y-115542910D02*
G75*
G03*
X145601000Y-97817090I-4885000J8862910D01*
G01*
X138565000Y-80848000D02*
X138565000Y-76963000D01*
X138565000Y-76963000D02*
X140835000Y-76963000D01*
X140835000Y-76963000D02*
X140835000Y-80848000D01*
X133952439Y-86353632D02*
X135894939Y-89718141D01*
X131986561Y-87488632D02*
X133952439Y-86353632D01*
X133929061Y-90853141D02*
X131986561Y-87488632D01*
X130297061Y-79050141D02*
X132239561Y-75685632D01*
X132239561Y-75685632D02*
X134205439Y-76820632D01*
X134205439Y-76820632D02*
X132262939Y-80185141D01*
X147137061Y-80185141D02*
X145194561Y-76820632D01*
X145194561Y-76820632D02*
X147160439Y-75685632D01*
X147160439Y-75685632D02*
X149102939Y-79050141D01*
X147921439Y-87996632D02*
X145978939Y-91361141D01*
X144013061Y-90226141D02*
X145955561Y-86861632D01*
X145955561Y-86861632D02*
X147921439Y-87996632D01*
%TO.C,G\u002A\u002A\u002A*%
G36*
X111241361Y-128795288D02*
G01*
X111241361Y-77330367D01*
X119752356Y-77330367D01*
X119841246Y-79264811D01*
X120181000Y-81519821D01*
X120772174Y-83693656D01*
X121611747Y-85777605D01*
X122696697Y-87762959D01*
X124024000Y-89641007D01*
X124920588Y-90856403D01*
X125767515Y-92259722D01*
X126442477Y-93727654D01*
X126988066Y-95342121D01*
X127013229Y-95428437D01*
X127498909Y-96813201D01*
X128078894Y-97966865D01*
X128769150Y-98911519D01*
X129585646Y-99669253D01*
X130544347Y-100262157D01*
X130852545Y-100411319D01*
X131330723Y-100613253D01*
X131807903Y-100764569D01*
X132328516Y-100871379D01*
X132936997Y-100939790D01*
X133677779Y-100975913D01*
X134595297Y-100985857D01*
X135733983Y-100975733D01*
X136275726Y-100967625D01*
X137095308Y-100951961D01*
X137713133Y-100931745D01*
X138170878Y-100902624D01*
X138510217Y-100860244D01*
X138772826Y-100800250D01*
X139000380Y-100718288D01*
X139234555Y-100610004D01*
X139737157Y-100300330D01*
X140425228Y-99732677D01*
X141208519Y-98958972D01*
X142072991Y-97995733D01*
X143004601Y-96859478D01*
X143989309Y-95566729D01*
X145013073Y-94134002D01*
X146061853Y-92577818D01*
X147152906Y-90820392D01*
X148204030Y-88889836D01*
X149050811Y-87041078D01*
X149690859Y-85283555D01*
X150121781Y-83626703D01*
X150341187Y-82079961D01*
X150346685Y-80652766D01*
X150135885Y-79354555D01*
X149706393Y-78194765D01*
X149115784Y-77242782D01*
X148323878Y-76385259D01*
X147398146Y-75699978D01*
X146374615Y-75200384D01*
X145289313Y-74899919D01*
X144178266Y-74812028D01*
X143077501Y-74950153D01*
X142023045Y-75327738D01*
X141545854Y-75586998D01*
X140946036Y-75962913D01*
X140446830Y-76326173D01*
X139756395Y-76888540D01*
X139030030Y-76237405D01*
X138452108Y-75766257D01*
X137422453Y-75152086D01*
X136354843Y-74798289D01*
X135238306Y-74701822D01*
X134061868Y-74859643D01*
X133880791Y-74904411D01*
X132627937Y-75356739D01*
X131539574Y-76017145D01*
X130621129Y-76880668D01*
X129878031Y-77942347D01*
X129315707Y-79197223D01*
X129293777Y-79260999D01*
X129156091Y-79731123D01*
X129072551Y-80206480D01*
X129032292Y-80773689D01*
X129024451Y-81519372D01*
X129069990Y-82487675D01*
X129262673Y-83754377D01*
X129616958Y-85008711D01*
X130144651Y-86274286D01*
X130857557Y-87574709D01*
X131767481Y-88933591D01*
X132886228Y-90374539D01*
X134225602Y-91921163D01*
X134276820Y-91977566D01*
X134902976Y-92617669D01*
X135437741Y-93049281D01*
X135920131Y-93292566D01*
X136389164Y-93367686D01*
X136883859Y-93294802D01*
X137282415Y-93131588D01*
X137750670Y-92719142D01*
X137813751Y-92632229D01*
X138079534Y-92170760D01*
X138186683Y-91729207D01*
X138124879Y-91271005D01*
X137883799Y-90759589D01*
X137453123Y-90158394D01*
X136822531Y-89430855D01*
X136284860Y-88830425D01*
X135127281Y-87427331D01*
X134198536Y-86117938D01*
X133490699Y-84887347D01*
X132995841Y-83720656D01*
X132706034Y-82602965D01*
X132613351Y-81519372D01*
X132652767Y-80749601D01*
X132792365Y-80105224D01*
X133057261Y-79578672D01*
X133472589Y-79099149D01*
X133703867Y-78895910D01*
X134430723Y-78465192D01*
X135199434Y-78284322D01*
X135976307Y-78352189D01*
X136727650Y-78667676D01*
X137419770Y-79229671D01*
X137661354Y-79495658D01*
X137786703Y-79717263D01*
X137796289Y-79975895D01*
X137718985Y-80382822D01*
X137631980Y-80872419D01*
X137590293Y-81841960D01*
X137754401Y-82653655D01*
X138122760Y-83302123D01*
X138693828Y-83781985D01*
X138735318Y-83805947D01*
X139351602Y-84060429D01*
X139912163Y-84073618D01*
X140465875Y-83847316D01*
X140545916Y-83796302D01*
X141097915Y-83275264D01*
X141452864Y-82586506D01*
X141605278Y-81745609D01*
X141549671Y-80768158D01*
X141399301Y-79798996D01*
X141912739Y-79363003D01*
X142409631Y-79018086D01*
X143052042Y-78699744D01*
X143705419Y-78477677D01*
X144266836Y-78394241D01*
X144312855Y-78395278D01*
X144839636Y-78507406D01*
X145418234Y-78765349D01*
X145944471Y-79113110D01*
X146314168Y-79494693D01*
X146411967Y-79663894D01*
X146607417Y-80134014D01*
X146744619Y-80636266D01*
X146806917Y-81333204D01*
X146723520Y-82358000D01*
X146471348Y-83523547D01*
X146063002Y-84805343D01*
X145511085Y-86178887D01*
X144828197Y-87619678D01*
X144026941Y-89103214D01*
X143119917Y-90604993D01*
X142119728Y-92100515D01*
X141038974Y-93565277D01*
X139890258Y-94974779D01*
X138686181Y-96304518D01*
X138682067Y-96308812D01*
X138233434Y-96757249D01*
X137836516Y-97086294D01*
X137438512Y-97312264D01*
X136986619Y-97451476D01*
X136428035Y-97520247D01*
X135709956Y-97534893D01*
X134779581Y-97511733D01*
X134140233Y-97482638D01*
X133216496Y-97393767D01*
X132490717Y-97229456D01*
X131921960Y-96958667D01*
X131469287Y-96550363D01*
X131091765Y-95973507D01*
X130748455Y-95197062D01*
X130398424Y-94189990D01*
X130185172Y-93549798D01*
X129655001Y-92126510D01*
X129086278Y-90862263D01*
X128439134Y-89681403D01*
X127673699Y-88508276D01*
X126750102Y-87267230D01*
X126528456Y-86977155D01*
X125415376Y-85272892D01*
X124549182Y-83470390D01*
X123929530Y-81568639D01*
X123556080Y-79566629D01*
X123428489Y-77463351D01*
X123435181Y-76859132D01*
X123564804Y-75086004D01*
X123871700Y-73434447D01*
X124372103Y-71833269D01*
X125082246Y-70211280D01*
X125305921Y-69776092D01*
X126366187Y-68053210D01*
X127603548Y-66509610D01*
X128997597Y-65150685D01*
X130527926Y-63981827D01*
X132174130Y-63008431D01*
X133915799Y-62235889D01*
X135732529Y-61669594D01*
X137603910Y-61314939D01*
X139509537Y-61177317D01*
X141429002Y-61262122D01*
X143341899Y-61574746D01*
X145227820Y-62120583D01*
X147066357Y-62905026D01*
X148837105Y-63933467D01*
X149200639Y-64182099D01*
X150767180Y-65430230D01*
X152132646Y-66838069D01*
X153315154Y-68426325D01*
X154332821Y-70215707D01*
X155108300Y-72011030D01*
X155684878Y-73946049D01*
X156000779Y-75909336D01*
X156058715Y-77918226D01*
X155861396Y-79990053D01*
X155573338Y-81509321D01*
X155168865Y-82963898D01*
X154632819Y-84353193D01*
X153942014Y-85729250D01*
X153073263Y-87144116D01*
X152003379Y-88649834D01*
X151519831Y-89314862D01*
X150602302Y-90734060D01*
X149840272Y-92171718D01*
X149220705Y-93667174D01*
X148730566Y-95259767D01*
X148356819Y-96988836D01*
X148086428Y-98893720D01*
X147906357Y-101013757D01*
X147845324Y-101475026D01*
X147621213Y-102064952D01*
X147206019Y-102573540D01*
X146563146Y-103056442D01*
X146374302Y-103172510D01*
X145160354Y-103773841D01*
X143702347Y-104280284D01*
X142004344Y-104690998D01*
X140070408Y-105005144D01*
X137904604Y-105221882D01*
X135510995Y-105340372D01*
X135104193Y-105352030D01*
X134222207Y-105382488D01*
X133551171Y-105416563D01*
X133051434Y-105458146D01*
X132683341Y-105511128D01*
X132407242Y-105579398D01*
X132183482Y-105666849D01*
X132120220Y-105697819D01*
X131606417Y-106093000D01*
X131284585Y-106617516D01*
X131167523Y-107212092D01*
X131268028Y-107817459D01*
X131598898Y-108374342D01*
X131680061Y-108460309D01*
X132084594Y-108779970D01*
X132496542Y-108976657D01*
X132550455Y-108988572D01*
X132894754Y-109028005D01*
X133443829Y-109062151D01*
X134150055Y-109089065D01*
X134965806Y-109106801D01*
X135843455Y-109113412D01*
X137703894Y-109132887D01*
X139696114Y-109203464D01*
X141458760Y-109324830D01*
X142986439Y-109496208D01*
X144273758Y-109716823D01*
X145315321Y-109985900D01*
X146105735Y-110302661D01*
X146639607Y-110666332D01*
X146868410Y-110911131D01*
X146988362Y-111177834D01*
X146865642Y-111401697D01*
X146492275Y-111635174D01*
X146456212Y-111653370D01*
X146107773Y-111807928D01*
X145715500Y-111939123D01*
X145254714Y-112049257D01*
X144700735Y-112140633D01*
X144028882Y-112215553D01*
X143214474Y-112276319D01*
X142232832Y-112325233D01*
X141059275Y-112364599D01*
X139669123Y-112396719D01*
X138037696Y-112423894D01*
X137617636Y-112430021D01*
X136314871Y-112450079D01*
X135245370Y-112469167D01*
X134383729Y-112488690D01*
X133704540Y-112510051D01*
X133182398Y-112534656D01*
X132791897Y-112563907D01*
X132507631Y-112599209D01*
X132304194Y-112641965D01*
X132156179Y-112693581D01*
X132038182Y-112755460D01*
X131652173Y-113063449D01*
X131306329Y-113616272D01*
X131189005Y-114300000D01*
X131250275Y-114805647D01*
X131533322Y-115396554D01*
X132038182Y-115844407D01*
X132103135Y-115881066D01*
X132257486Y-115946264D01*
X132463982Y-115998985D01*
X132753165Y-116041540D01*
X133155577Y-116076242D01*
X133701762Y-116105402D01*
X134422262Y-116131332D01*
X135347619Y-116156343D01*
X136508377Y-116182748D01*
X137866466Y-116218707D01*
X139419294Y-116284219D01*
X140755495Y-116377920D01*
X141902733Y-116507403D01*
X142888678Y-116680264D01*
X143740994Y-116904097D01*
X144487349Y-117186498D01*
X145155409Y-117535061D01*
X145772840Y-117957382D01*
X146367311Y-118461056D01*
X146966486Y-119053676D01*
X147258755Y-119358125D01*
X147646877Y-119746575D01*
X147934179Y-119994631D01*
X148171072Y-120136983D01*
X148407969Y-120208323D01*
X148695281Y-120243341D01*
X149063473Y-120243780D01*
X149690797Y-120070929D01*
X150177653Y-119693632D01*
X150492728Y-119141401D01*
X150604712Y-118443747D01*
X150581221Y-118232197D01*
X150373885Y-117685891D01*
X149971629Y-117053240D01*
X149397810Y-116367907D01*
X148675781Y-115663554D01*
X148575392Y-115573270D01*
X148239972Y-115257683D01*
X148018271Y-115026373D01*
X147954043Y-114924161D01*
X148022374Y-114880490D01*
X148270546Y-114733124D01*
X148624954Y-114528227D01*
X148733699Y-114463962D01*
X149542398Y-113824790D01*
X150141715Y-113032811D01*
X150516422Y-112113832D01*
X150651294Y-111093664D01*
X150649602Y-110829516D01*
X150603383Y-110338955D01*
X150473083Y-109884555D01*
X150227553Y-109337204D01*
X149677411Y-108463072D01*
X148937881Y-107736549D01*
X147987353Y-107148422D01*
X147298266Y-106806381D01*
X148120337Y-106330939D01*
X148595736Y-106025089D01*
X149357900Y-105418339D01*
X150065864Y-104723928D01*
X150656347Y-104006325D01*
X151066066Y-103329996D01*
X151094358Y-103269223D01*
X151247607Y-102901263D01*
X151358397Y-102529574D01*
X151439240Y-102088623D01*
X151502646Y-101512876D01*
X151561126Y-100736803D01*
X151632324Y-99809988D01*
X151777361Y-98486550D01*
X151970683Y-97312361D01*
X152224859Y-96216284D01*
X152552463Y-95127179D01*
X153100324Y-93711709D01*
X153888440Y-92223478D01*
X154880810Y-90825283D01*
X155540496Y-89967944D01*
X156763989Y-88118728D01*
X157766558Y-86190393D01*
X158570404Y-84137104D01*
X159197728Y-81913029D01*
X159218208Y-81825638D01*
X159340737Y-81280033D01*
X159431396Y-80805297D01*
X159495035Y-80345292D01*
X159536503Y-79843881D01*
X159560649Y-79244928D01*
X159572324Y-78492294D01*
X159576376Y-77529843D01*
X159576521Y-77398152D01*
X159567286Y-76230935D01*
X159532270Y-75259578D01*
X159462327Y-74420844D01*
X159348311Y-73651496D01*
X159181075Y-72888299D01*
X158951475Y-72068016D01*
X158650363Y-71127411D01*
X158427969Y-70493374D01*
X157520049Y-68408481D01*
X156384790Y-66458847D01*
X155018534Y-64638747D01*
X153417620Y-62942458D01*
X153047598Y-62599640D01*
X151299339Y-61199154D01*
X149393887Y-60003720D01*
X147353616Y-59024427D01*
X145200901Y-58272364D01*
X142958115Y-57758620D01*
X142572450Y-57694947D01*
X141952504Y-57608858D01*
X141362664Y-57555781D01*
X140729059Y-57531912D01*
X139977820Y-57533446D01*
X139035078Y-57556579D01*
X138090365Y-57599343D01*
X136439352Y-57759243D01*
X134921074Y-58038744D01*
X133458376Y-58457824D01*
X131974103Y-59036459D01*
X130391099Y-59794624D01*
X129296730Y-60399529D01*
X127894794Y-61324711D01*
X126573132Y-62394260D01*
X125257119Y-63664427D01*
X124234845Y-64805120D01*
X122877135Y-66637694D01*
X121759855Y-68581741D01*
X120885873Y-70630145D01*
X120258051Y-72775793D01*
X119879257Y-75011572D01*
X119752356Y-77330367D01*
X111241361Y-77330367D01*
X111241361Y-49004713D01*
X168158638Y-49004713D01*
X168158638Y-128795288D01*
X111241361Y-128795288D01*
G37*
%TD*%
%LPC*%
D12*
%TO.C,REF\u002A\u002A*%
X140716000Y-118585000D03*
X140716000Y-94775000D03*
D13*
X140716000Y-106680000D03*
%TD*%
D14*
%TO.C,REF\u002A\u002A*%
X139877800Y-55346600D03*
%TD*%
D15*
%TO.C,REF\u002A\u002A*%
X139700000Y-80648000D03*
X139700000Y-77848000D03*
%TD*%
D16*
%TO.C,REF\u002A\u002A*%
X133412000Y-87687564D03*
X134812000Y-90112436D03*
%TD*%
D17*
%TO.C,REF\u002A\u002A*%
X131380000Y-79444436D03*
X132780000Y-77019564D03*
%TD*%
D16*
%TO.C,REF\u002A\u002A*%
X148020000Y-79444436D03*
X146620000Y-77019564D03*
%TD*%
D17*
%TO.C,REF\u002A\u002A*%
X145096000Y-90620436D03*
X146496000Y-88195564D03*
%TD*%
M02*
